<?xml version="1.0" encoding="UTF-8"?>
<!-- Generator: Adobe Illustrator 27.3.1, SVG Export Plug-In . SVG Version: 6.00 Build 0)  -->
<svg xmlns="http://www.w3.org/2000/svg" xmlns:xlink="http://www.w3.org/1999/xlink" version="1.1" id="Layer_1" x="0px" y="0px" viewBox="0 0 179.8 60.1" style="enable-background:new 0 0 179.8 60.1;" xml:space="preserve">
<style type="text/css">
	.st0{fill:#FFFFFF;}
	.st1{fill:#F15C2B;}
</style>
<g id="Group_19">
	<path id="Path_16" class="st0" d="M168.7,52.1l5.5-2.1v4.2L168.7,52.1L168.7,52.1z M165.4,49.9v4.3l14.4,5.9v-3.7l-2.6-1.1v-6.4   l2.6-1.1V44L165.4,49.9L165.4,49.9z"></path>
	<path id="Path_17" class="st0" d="M176.7,28.4l0,9.6H174v-7.9h-3V38h-2.5v-9.6h-3.1v13.1h14.4l0-13.1L176.7,28.4z"></path>
	<path id="Path_18" class="st0" d="M17.9,43.5c4.4,0,6-1.2,6-4.8s-1.5-4.9-6-4.9H6.2v9.7L17.9,43.5z M0,28.4h18.5   c8.5,0,11.6,2.8,11.6,10.3S27,49,18.5,49H6.2v11.1H0V28.4z"></path>
	<path id="Path_19" class="st0" d="M53.4,43.1c4.3,0,5.7-1.2,5.7-4.5c0-3.4-1.5-4.7-5.7-4.7H41.5v9.2L53.4,43.1z M35.3,28.4h18.6   c8.3,0,11.4,2.8,11.4,10.1c0,6.2-2.2,9-7.9,9.8l9.5,11.8h-7.8L50,48.4h-8.5v11.6h-6.2L35.3,28.4z"></path>
	<rect id="Rectangle_35" x="71.8" y="28.4" class="st0" width="6.2" height="31.7"></rect>
	<path id="Path_20" class="st0" d="M115.6,28.4l-10.5,22.7L94.6,28.4h-9.1v31.7h6V35.2l11.4,24.8h4.4l11.5-25.3v25.3h6.2V28.4H115.6   z"></path>
	<path id="Path_21" class="st0" d="M132.6,28.4v31.7H161v-5.4h-22.2v-7.9h18.5v-5.4h-18.5v-7.5h21.8v-5.4H132.6z"></path>
	<path id="Path_22" class="st1" d="M136.9,0L85.4,21.9l52.4-11V2.5l28.1,11.1l14-3.1l-12.4-8.2L156.6,8L136.9,0z"></path>
	<path id="Path_23" class="st1" d="M132.1,21.9l30.9-6.7l-11.9-2.7L132.1,21.9z"></path>
</g>
</svg>
